{"title":"Alice through the Looking Glass 1998 DVDrip English Klam","uid":6643980,"size":1044326725,"categoryP":"video","categoryS":"movies","magnet":"?xt=urn:btih:1ab63ebc99cfeebfdaa78d409973a2b5f7de0cfd&amp;dn=Alice+through+the+Looking+Glass+1998+DVDrip+English+Klam&amp;tr=udp%3A%2F%2Ftracker.openbittorrent.com%3A80&amp;tr=udp%3A%2F%2Fopen.demonii.com%3A1337&amp;tr=udp%3A%2F%2Ftracker.coppersurfer.tk%3A6969&amp;tr=udp%3A%2F%2Fexodus.desync.com%3A6969","seeders":2,"leechers":0,"uploader":"Klambake","files":-1,"time":1314872980,"description":"With: Jonathan Bailey, Kate Beckinsale en Desmond Barritt\n\nAlice (Kate Beckinsale) komt tijdens het voorlezen van een boek op mysterieuze wijze in een nieuwe dimensie terechtkomt. Verfilming van het (kinder)boek &quot;Through the looking-glass, and what Alice-found there&quot; van Lewis Carroll, een vervolg op Alice in Wonderland.\n\nA modern adaptation of the classic children's story 'Alice through the Looking Glass' written by Lewis Carol...\n\n------------------ Dutch Friends ------------------\nYou can find my Friends at: http://www.Film-Test.nl \n------ They got my dutchs subs ---- and more ------\n\nGeneral:\n\nComplete name                    : Alice through the Looking Glass\\Alice through the Looking Glass.avi\nFormat                           : AVI\nFormat/Info                      : Audio Video Interleave\nFile size                        : 995 MiB\nDuration                         : 1h 23mn\nOverall bit rate                 : 1 669 Kbps\n\nVideo:\n\nFormat                           : MPEG-4 Visual\nFormat profile                   : Simple@L3\nFormat settings, BVOP            : No\nFormat settings, QPel            : No\nFormat settings, GMC             : No warppoints\nFormat settings, Matrix          : Default (H.263)\nCodec ID                         : XVID\nCodec ID/Hint                    : XviD\nDuration                         : 1h 23mn\nBit rate                         : 1 466 Kbps\nWidth                            : 704 pixels\nHeight                           : 396 pixels\nDisplay aspect ratio             : 16:9\nFrame rate                       : 25.000 fps\nColor space                      : YUV\nChroma subsampling               : 4:2:0\nBit depth                        : 8 bits\nScan type                        : Progressive\nBits/(Pixel*Frame)               : 0.210\nStream size                      : 874 MiB (88%)\nWriting library                  : XviD 1.1.2 (UTC 2006-11-01)\n\nAudio:\n\nFormat                           : AC-3\nFormat/Info                      : Audio Coding 3\nMode extension                   : CM (complete main)\nCodec ID                         : 2000\nDuration                         : 1h 23mn\nBit rate mode                    : Constant\nBit rate                         : 192 Kbps\nChannel(s)                       : 2 channels\nChannel positions                : Front: L R\nSampling rate                    : 48.0 KHz\nBit depth                        : 16 bits\nStream size                      : 114 MiB (12%)\nAlignment                        : Aligned on interleaves\nInterleave, duration             : 32 ms (0.80 video frame)\nInterleave, preload duration     : 160 ms\n\n\n","torrent":{"xt":"urn:btih:1ab63ebc99cfeebfdaa78d409973a2b5f7de0cfd","amp;dn":"Alice+through+the+Looking+Glass+1998+DVDrip+English+Klam","amp;tr":["udp%3A%2F%2Ftracker.openbittorrent.com%3A80","udp%3A%2F%2Fopen.demonii.com%3A1337","udp%3A%2F%2Ftracker.coppersurfer.tk%3A6969","udp%3A%2F%2Fexodus.desync.com%3A6969"],"infoHash":"1ab63ebc99cfeebfdaa78d409973a2b5f7de0cfd","infoHashBuffer":{"type":"Buffer","data":[26,182,62,188,153,207,238,191,218,167,141,64,153,115,162,181,247,222,12,253]},"announce":[],"urlList":[]}}